<svg viewBox="0 0 818 499" xmlns="http://www.w3.org/2000/svg" fill-rule="evenodd" clip-rule="evenodd" fill="none">
    <path d="M 423 0 L 431 0 L 437 5 L 441 15 L 441 24 L 436 44 L 434 46 L 431 46 L 421 41 L 416 46 L 413 52 L 410 68 L 411 118 L 409 133 L 406 138 L 403 132 L 401 100 L 401 42 L 404 25 L 409 12 L 417 3 L 423 0 Z M 337 38 L 344 39 L 349 42 L 365 58 L 378 78 L 384 94 L 388 114 L 389 142 L 387 148 L 385 148 L 383 145 L 376 119 L 365 99 L 354 88 L 350 86 L 345 88 L 334 88 L 329 83 L 327 52 L 330 43 L 337 38 Z M 432 200 L 449 208 L 479 227 L 458 271 L 454 270 L 409 243 L 386 283 L 380 281 L 354 265 L 343 260 L 340 257 L 361 213 L 409 240 L 432 200 Z M 765 327 L 798 327 L 809 331 L 815 337 L 818 344 L 818 367 L 813 381 L 804 396 L 766 439 L 724 499 L 721 499 L 722 492 L 728 475 L 737 457 L 745 444 L 762 422 L 795 388 L 798 381 L 794 376 L 789 374 L 769 374 L 745 377 L 715 383 L 605 411 L 537 424 L 491 431 L 389 441 L 342 443 L 284 443 L 205 438 L 166 433 L 130 426 L 97 411 L 52 386 L 12 361 L 0 350 L 1 348 L 8 348 L 37 356 L 138 377 L 202 387 L 284 393 L 361 393 L 442 388 L 537 376 L 612 362 L 683 345 L 718 335 L 765 327 Z" fill="#0A192F" />
</svg>
